<?xml version="1.0" standalone="no"?><!DOCTYPE svg PUBLIC "-//W3C//DTD SVG 1.1//EN" "http://www.w3.org/Graphics/SVG/1.1/DTD/svg11.dtd"><svg width="800px" height="122px" version="1.1" xmlns="http://www.w3.org/2000/svg" xmlns:xlink="http://www.w3.org/1999/xlink" xml:space="preserve" style="fill-rule:evenodd;clip-rule:evenodd;stroke-linejoin:round;stroke-miterlimit:1.41421;"><g><g transform="matrix(1,0,0,1,0,-189)"><g transform="matrix(1.53227,0,0,1.53227,4.45224,-52.0459)"><g transform="matrix(1,0,0,1,-258.591,11.7926)"><path d="M368.112,203.958c-0.0813802,0.276693 -0.142415,0.545247 -0.183105,0.805664c-0.0406901,0.260417 -0.0610352,0.528971 -0.0610352,0.805664c0,0.504557 0.130208,0.939941 0.390625,1.30615c0.260417,0.366211 0.78125,0.549316 1.5625,0.549316c0.292969,0 0.53304,-0.00813802 0.720215,-0.0244141c0.187174,-0.016276 0.341797,-0.0406901 0.463867,-0.0732422c0.12207,-0.0325521 0.223796,-0.0691732 0.305176,-0.109863c0.0813802,-0.0406901 0.170898,-0.0773112 0.268555,-0.109863c-0.0651042,0.895182 -0.280762,1.66423 -0.646973,2.30713c-0.366211,0.642904 -0.793457,1.17594 -1.28174,1.59912c-0.488281,0.423177 -0.980632,0.736491 -1.47705,0.939941c-0.496419,0.203451 -0.915527,0.305176 -1.25732,0.305176c-2.08333,0 -3.65397,-0.49235 -4.71191,-1.47705c-1.05794,-0.984701 -1.58691,-2.38851 -1.58691,-4.21143c0,-0.78125 0.0976562,-1.65202 0.292969,-2.6123l0.415039,-1.95312c0.0813802,-0.325521 0.134277,-0.642904 0.158691,-0.952148c0.0244141,-0.309245 0.0366211,-0.602214 0.0366211,-0.878906c0,-0.732422 -0.130208,-1.31836 -0.390625,-1.75781c-0.260417,-0.439453 -0.732422,-0.65918 -1.41602,-0.65918c-0.569661,0 -1.15153,0.166829 -1.74561,0.500488c-0.594076,0.333659 -1.24105,0.785319 -1.94092,1.35498l-2.6123,12.3535l-7.20215,0l7.25098,-34.0088l7.39746,-1.00098l-3.73535,17.6025l9.64355,-7.59277l4.95605,0l-10.0098,6.95801c0.553385,-0.146484 1.10677,-0.219727 1.66016,-0.219727c0.927734,0 1.73747,0.154622 2.4292,0.463867c0.691732,0.309245 1.26546,0.732422 1.72119,1.26953c0.455729,0.537109 0.793457,1.15967 1.01318,1.86768c0.219727,0.708008 0.32959,1.46077 0.32959,2.2583c0,0.309245 -0.012207,0.622559 -0.0366211,0.939941c-0.0244141,0.317383 -0.0773112,0.638835 -0.158691,0.964355l-0.561523,2.49023Z" style="fill:#7a7a7a;"/><text x="258.591px" y="211.966px" style="font-family:Lobster;font-size:50px;fill:#7a7a7a;">cran</text><text x="371.726px" y="211.966px" style="font-family:Lobster;font-size:50px;fill:#7a7a7a;"> </text><text x="382.565px" y="211.966px" style="font-family:Bebas Neue;font-size:50px;font-weight:700;fill:#ff0097;">up</text><text x="421.315px" y="211.966px" style="font-family:Lobster;font-size:50px;fill:#7a7a7a;"> </text><path d="M566.384,224.466l2.66113,-12.5977c-0.78125,0.0325521 -1.56657,0.0854492 -2.35596,0.158691c-0.789388,0.0732422 -1.62354,0.199382 -2.50244,0.378418l-0.756836,3.56445c-0.358073,1.79036 -0.874837,3.23893 -1.55029,4.3457c-0.675456,1.10677 -1.42822,1.9694 -2.2583,2.58789c-0.830078,0.61849 -1.69678,1.03353 -2.6001,1.24512c-0.90332,0.211589 -1.77002,0.317383 -2.6001,0.317383c-0.764974,0 -1.48519,-0.101725 -2.16064,-0.305176c-0.675456,-0.203451 -1.26546,-0.504557 -1.77002,-0.90332c-0.504557,-0.398763 -0.907389,-0.90332 -1.2085,-1.51367c-0.301107,-0.610352 -0.45166,-1.32243 -0.45166,-2.13623c0,-1.02539 0.24821,-1.94499 0.744629,-2.75879c0.496419,-0.813802 1.13932,-1.53809 1.92871,-2.17285c0.789388,-0.634766 1.66829,-1.18001 2.63672,-1.63574c0.968424,-0.455729 1.93278,-0.830078 2.89307,-1.12305l0.561523,-2.44141c-0.537109,0.585938 -1.07422,1.06201 -1.61133,1.42822c-0.537109,0.366211 -1.05794,0.646973 -1.5625,0.842285c-0.504557,0.195312 -0.992839,0.32959 -1.46484,0.402832c-0.472005,0.0732422 -0.927734,0.109863 -1.36719,0.109863c-0.748698,0 -1.44857,-0.113932 -2.09961,-0.341797c-0.651042,-0.227865 -1.21663,-0.585938 -1.69678,-1.07422c-0.480143,-0.488281 -0.858561,-1.10677 -1.13525,-1.85547c-0.276693,-0.748698 -0.415039,-1.65202 -0.415039,-2.70996c0,-0.455729 0.0325521,-0.956217 0.0976562,-1.50146c0.0651042,-0.545247 0.16276,-1.13525 0.292969,-1.77002l3.39355,-16.04l7.20215,0l-3.58887,16.9922c-0.0976562,0.423177 -0.146484,0.846354 -0.146484,1.26953c0,0.292969 0.0244141,0.569661 0.0732422,0.830078c0.0488281,0.260417 0.130208,0.49235 0.244141,0.695801c0.113932,0.203451 0.264486,0.366211 0.45166,0.488281c0.187174,0.12207 0.427246,0.183105 0.720215,0.183105c0.455729,0 0.882975,-0.101725 1.28174,-0.305176c0.398763,-0.203451 0.760905,-0.488281 1.08643,-0.854492c0.325521,-0.366211 0.614421,-0.801595 0.866699,-1.30615c0.252279,-0.504557 0.476074,-1.0498 0.671387,-1.63574l3.49121,-16.3574l7.20215,0l-4.90723,22.9492c0.878906,-0.195312 1.72526,-0.37028 2.53906,-0.524902c0.813802,-0.154622 1.63574,-0.297038 2.46582,-0.427246l5.05371,-23.8525l7.20215,0l-0.805664,3.75977c0.732422,-0.61849 1.57064,-1.13118 2.51465,-1.53809c0.94401,-0.406901 2.05892,-0.610352 3.34473,-0.610352c0.846354,0 1.63981,0.134277 2.38037,0.402832c0.74056,0.268555 1.38753,0.708008 1.94092,1.31836c0.553385,0.610352 0.98877,1.42008 1.30615,2.4292c0.317383,1.00911 0.476074,2.25423 0.476074,3.73535c0,1.12305 -0.0813802,2.33968 -0.244141,3.6499c-0.16276,1.31022 -0.427246,2.62044 -0.793457,3.93066c-0.366211,1.31022 -0.858561,2.57161 -1.47705,3.78418c-0.61849,1.21257 -1.38346,2.28271 -2.29492,3.21045c-0.911458,0.927734 -1.98568,1.67236 -3.22266,2.23389c-1.23698,0.561523 -2.66113,0.842285 -4.27246,0.842285c-1.66016,0 -3.19824,-0.0488281 -4.61426,-0.146484l-2.24609,10.5469l-7.54395,1.80664ZM577.028,208.206c0.374349,-0.0325521 0.74056,-0.0488281 1.09863,-0.0488281c0.358073,0 0.724284,0 1.09863,0c0.878906,0 1.66016,-0.227865 2.34375,-0.683594c0.683594,-0.455729 1.28581,-1.06201 1.80664,-1.81885c0.520833,-0.756836 0.960286,-1.6154 1.31836,-2.57568c0.358073,-0.960286 0.651042,-1.94906 0.878906,-2.96631c0.227865,-1.01725 0.394694,-2.01823 0.500488,-3.00293c0.105794,-0.984701 0.158691,-1.86768 0.158691,-2.64893c0,-0.960286 -0.0895182,-1.71712 -0.268555,-2.27051c-0.179036,-0.553385 -0.394694,-0.968424 -0.646973,-1.24512c-0.252279,-0.276693 -0.524902,-0.45166 -0.817871,-0.524902c-0.292969,-0.0732422 -0.545247,-0.109863 -0.756836,-0.109863c-0.569661,0 -1.17188,0.20752 -1.80664,0.622559c-0.634766,0.415039 -1.18815,1.02946 -1.66016,1.84326l-3.24707,15.4297ZM556.472,214.676c-0.651042,0.244141 -1.26953,0.508626 -1.85547,0.793457c-0.585938,0.284831 -1.1027,0.598145 -1.55029,0.939941c-0.447591,0.341797 -0.805664,0.720215 -1.07422,1.13525c-0.268555,0.415039 -0.402832,0.874837 -0.402832,1.37939c0,0.179036 0.0325521,0.366211 0.0976562,0.561523c0.0651042,0.195312 0.166829,0.374349 0.305176,0.537109c0.138346,0.16276 0.313314,0.292969 0.524902,0.390625c0.211589,0.0976562 0.463867,0.146484 0.756836,0.146484c0.520833,0 1.05387,-0.362142 1.59912,-1.08643c0.545247,-0.724284 0.980632,-1.84326 1.30615,-3.35693l0.292969,-1.44043Z" style="fill:#7a7a7a;"/><path d="M644.948,209.476c-0.374349,0.390625 -0.773112,0.752767 -1.19629,1.08643c-0.423177,0.333659 -0.882975,0.626628 -1.37939,0.878906c-0.496419,0.252279 -1.02946,0.45166 -1.59912,0.598145c-0.569661,0.146484 -1.18001,0.219727 -1.83105,0.219727c-0.86263,0 -1.69271,-0.138346 -2.49023,-0.415039c-0.797526,-0.276693 -1.50553,-0.732422 -2.12402,-1.36719c-0.61849,-0.634766 -1.11491,-1.46484 -1.48926,-2.49023c-0.374349,-1.02539 -0.561523,-2.27865 -0.561523,-3.75977c0,-1.13932 0.113932,-2.36003 0.341797,-3.66211c0.227865,-1.30208 0.577799,-2.60417 1.0498,-3.90625c0.472005,-1.30208 1.06201,-2.55127 1.77002,-3.74756c0.708008,-1.19629 1.53809,-2.25423 2.49023,-3.17383c0.952148,-0.919596 2.03044,-1.65202 3.23486,-2.19727c1.20443,-0.545247 2.53092,-0.817871 3.97949,-0.817871c1.41602,0 2.44548,0.244141 3.08838,0.732422c0.642904,0.488281 0.964355,1.09049 0.964355,1.80664l0,0.0976562l0.488281,-2.39258l7.25098,0l-6.10352,29.0039c-0.358073,1.79036 -0.882975,3.23893 -1.57471,4.3457c-0.691732,1.10677 -1.45671,1.9694 -2.29492,2.58789c-0.838216,0.61849 -1.71712,1.03353 -2.63672,1.24512c-0.919596,0.211589 -1.7863,0.317383 -2.6001,0.317383c-0.748698,0 -1.47705,-0.130208 -2.18506,-0.390625c-0.708008,-0.260417 -1.33464,-0.626628 -1.87988,-1.09863c-0.545247,-0.472005 -0.984701,-1.0376 -1.31836,-1.69678c-0.333659,-0.65918 -0.500488,-1.39567 -0.500488,-2.20947c0,-1.17188 0.223796,-2.15658 0.671387,-2.9541c0.447591,-0.797526 1.06201,-1.47298 1.84326,-2.02637c0.78125,-0.553385 1.69678,-1.02132 2.74658,-1.40381c1.0498,-0.382487 2.17692,-0.752767 3.38135,-1.11084l0.463867,-2.09961ZM648.732,191.556c-0.0325521,-0.16276 -0.0854492,-0.341797 -0.158691,-0.537109c-0.0732422,-0.195312 -0.183105,-0.382487 -0.32959,-0.561523c-0.146484,-0.179036 -0.345866,-0.32959 -0.598145,-0.45166c-0.252279,-0.12207 -0.57373,-0.183105 -0.964355,-0.183105c-0.69987,0 -1.36312,0.227865 -1.98975,0.683594c-0.626628,0.455729 -1.20036,1.06201 -1.72119,1.81885c-0.520833,0.756836 -0.984701,1.6154 -1.3916,2.57568c-0.406901,0.960286 -0.752767,1.94906 -1.0376,2.96631c-0.284831,1.01725 -0.500488,2.01823 -0.646973,3.00293c-0.146484,0.984701 -0.219727,1.86768 -0.219727,2.64893c0,0.960286 0.0895182,1.70085 0.268555,2.22168c0.179036,0.520833 0.394694,0.907389 0.646973,1.15967c0.252279,0.252279 0.524902,0.402832 0.817871,0.45166c0.292969,0.0488281 0.553385,0.0732422 0.78125,0.0732422c0.341797,0 0.703939,-0.0773112 1.08643,-0.231934c0.382487,-0.154622 0.760905,-0.386556 1.13525,-0.695801c0.374349,-0.309245 0.716146,-0.69987 1.02539,-1.17188c0.309245,-0.472005 0.561523,-1.02539 0.756836,-1.66016l2.53906,-12.1094ZM644.143,213.162c-0.78125,0.260417 -1.51367,0.553385 -2.19727,0.878906c-0.683594,0.325521 -1.2736,0.695801 -1.77002,1.11084c-0.496419,0.415039 -0.887044,0.887044 -1.17188,1.41602c-0.284831,0.528971 -0.427246,1.12712 -0.427246,1.79443c0,0.195312 0.0488281,0.390625 0.146484,0.585938c0.0976562,0.195312 0.236003,0.37028 0.415039,0.524902c0.179036,0.154622 0.390625,0.284831 0.634766,0.390625c0.244141,0.105794 0.512695,0.158691 0.805664,0.158691c0.260417,0 0.53304,-0.0610352 0.817871,-0.183105c0.284831,-0.12207 0.557454,-0.333659 0.817871,-0.634766c0.260417,-0.301107 0.504557,-0.703939 0.732422,-1.2085c0.227865,-0.504557 0.423177,-1.13118 0.585938,-1.87988l0.610352,-2.9541Z" style="fill:#7a7a7a;"/><text x="432.155px" y="211.966px" style="font-family:Lobster;font-size:50px;fill:#7a7a7a;">your t<tspan x="594.338px 607.692px 656.935px ">in </tspan>speed</text></g><g transform="matrix(1.08148,0,0,0.979649,-335.103,-13.1886)"><path d="M441.544,174.732l12.2486,23.6747l-24.4971,0l12.2486,-23.6747Z" style="fill:#ff0097;"/></g></g></g></g></svg>