<?xml version="1.0" standalone="no"?><!DOCTYPE svg PUBLIC "-//W3C//DTD SVG 1.1//EN" "http://www.w3.org/Graphics/SVG/1.1/DTD/svg11.dtd"><svg width="500px" height="250px" version="1.1" xmlns="http://www.w3.org/2000/svg" xmlns:xlink="http://www.w3.org/1999/xlink" xml:space="preserve" style="fill-rule:evenodd;clip-rule:evenodd;stroke-linejoin:round;stroke-miterlimit:1.41421;"><g><g transform="matrix(1,0,0,1,2,2)"><path d="M476.056,63.4563c3.59985,2.43076 5.98983,6.58966 5.98983,11.3068l0,144.474c0,7.54739 -6.11837,13.6658 -13.6658,13.6658l-384.759,0c-3.77369,0 -7.19013,-1.52959 -10.2577,-4.64117l-24.0661,-20.9882l11.5486,-13.2422l9.10934,7.94433l0,-127.212c0,-7.54739 6.11837,-13.6658 13.6658,-13.6658l362.998,0l-4.77129,-4.16108l11.5486,-13.2422l22.6603,19.7623Z" style="fill:#8d8d8d;fill-opacity:0.611765;"/></g><g transform="matrix(0.885076,0,0,0.952002,18.3681,3.32322)"><path d="M510.637,58.3798c0,-18.4372 -16.0765,-33.3835 -35.9078,-33.3835l-426.042,0c-19.8313,0 -35.9078,14.9463 -35.9078,33.3835l0,138.863c0,18.4372 16.0765,33.3835 35.9078,33.3835l426.042,0c19.8313,0 35.9078,-14.9463 35.9078,-33.3835l0,-138.863Z" style="fill:#111120;"/></g><g transform="matrix(1.2266,0,0,1.09238,-106.501,-149.477)"><path d="M461.131,183.091c0,-6.40117 -4.62135,-11.5903 -10.3221,-11.5903l-320.333,0c-5.70072,0 -10.3221,5.18917 -10.3221,11.5903l0,136.35c0,6.40117 4.62135,11.5903 10.3221,11.5903l320.333,0c5.70072,0 10.3221,-5.18917 10.3221,-11.5903Z" style="fill:#fff;"/></g><g transform="matrix(0.692142,0,0,0.692142,-49.4608,-73.3022)"><g transform="matrix(0.498058,0,0,1,478.52,-13.652)"><path d="M311.671,370.381l0,9.25519l-28.5886,-14.2388l28.5886,-14.2388l0,9.25519l122.653,0l0,9.96713l-122.653,0l0,9e-05Z" style="fill:#7a7a7a;"/></g><g transform="matrix(1.41314e-17,-0.230783,1,6.12323e-17,324.457,422.06)"><rect x="283.082" y="360.414" width="151.242" height="9.96713" style="fill:#7a7a7a;"/></g><g transform="matrix(5.05335,0,0,5.05335,-658.509,-872.905)"><path d="M196.913,239.909l0,5.96875l-1.75781,0l0,-5.96875l-0.75,0l0,-1.64062l0.75,0l0,-2.78906l1.75781,0l0,2.78906l1.36719,0l0,1.64062l-1.36719,0Z" style="fill:#7a7a7a;"/><path d="M199.476,238.268l1.75781,0l0,0.679688c0.322917,-0.338542 0.609375,-0.570312 0.859375,-0.695312c0.255208,-0.130208 0.557292,-0.195312 0.90625,-0.195312c0.463542,0 0.947917,0.151042 1.45312,0.453125l-0.804688,1.60938c-0.333333,-0.239583 -0.658854,-0.359375 -0.976562,-0.359375c-0.958333,0 -1.4375,0.723958 -1.4375,2.17188l0,3.94531l-1.75781,0l0,-7.60938l5e-06,-4e-06Z" style="fill:#7a7a7a;"/><path d="M207.859,244.464l-3.42188,-6.19531l2.03906,0l2.32812,4.375l2.17188,-4.375l1.98438,0l-6.0625,11.75l-2.00781,0l2.96875,-5.55469Z" style="fill:#7a7a7a;"/><path d="M219.093,238.268l1.76562,0l0,0.703125c0.614583,-0.609375 1.30729,-0.914062 2.07812,-0.914062c0.885417,0 1.57552,0.278646 2.07031,0.835938c0.427083,0.473958 0.640625,1.2474 0.640625,2.32031l0,4.66406l-1.76562,0l0,-4.25c0,-0.75 -0.104167,-1.26823 -0.3125,-1.55469c-0.203125,-0.291667 -0.572917,-0.4375 -1.10938,-0.4375c-0.583333,0 -0.997396,0.192708 -1.24219,0.578125c-0.239583,0.380208 -0.359375,1.04427 -0.359375,1.99219l0,3.67188l-1.76562,0l0,-7.60938l1e-05,4e-06Z" style="fill:#7a7a7a;"/><path d="M227.507,242.018c0,-1.09896 0.393229,-2.03385 1.17969,-2.80469c0.786458,-0.770833 1.74479,-1.15625 2.875,-1.15625c1.13542,0 2.09896,0.388021 2.89062,1.16406c0.78125,0.776042 1.17188,1.72917 1.17188,2.85938c0,1.14062 -0.393229,2.09635 -1.17969,2.86719c-0.791667,0.765625 -1.76302,1.14844 -2.91406,1.14844c-1.14062,0 -2.09635,-0.390625 -2.86719,-1.17188c-0.770833,-0.770833 -1.15625,-1.73958 -1.15625,-2.90625ZM229.304,242.05c0,0.760417 0.203125,1.36198 0.609375,1.80469c0.416667,0.447917 0.966146,0.671875 1.64844,0.671875c0.6875,0 1.23698,-0.221354 1.64844,-0.664062c0.411458,-0.442708 0.617188,-1.03385 0.617188,-1.77344c0,-0.739583 -0.205729,-1.33073 -0.617188,-1.77344c-0.416667,-0.447917 -0.966146,-0.671875 -1.64844,-0.671875c-0.671875,0 -1.21615,0.223958 -1.63281,0.671875c-0.416667,0.447917 -0.625,1.02604 -0.625,1.73438l-5e-06,-3e-06Z" style="fill:#7a7a7a;"/><path d="M238.437,238.268l1.99219,4.34375l2.14844,-5.03906l2.16406,5.03906l1.96875,-4.34375l1.96875,0l-3.98438,8.17969l-2.11719,-4.89844l-2.14062,4.89844l-3.97656,-8.17969l1.97656,0Z" style="fill:#7a7a7a;"/></g></g></g></svg>